<?xml version="1.0" encoding="UTF-8" standalone="no"?>
<!DOCTYPE svg PUBLIC "-//W3C//DTD SVG 1.1//EN" "http://www.w3.org/Graphics/SVG/1.1/DTD/svg11.dtd">
<svg width="100%" height="100%" viewBox="0 0 32 32" version="1.1" xmlns="http://www.w3.org/2000/svg" xmlns:xlink="http://www.w3.org/1999/xlink" xml:space="preserve" xmlns:serif="http://www.serif.com/" style="fill-rule:evenodd;clip-rule:evenodd;stroke-linecap:round;stroke-miterlimit:1.5;">
    <rect id="la_pucelle" x="0" y="0" width="32" height="32" style="fill:none;"/>
    <clipPath id="_clip1">
        <rect x="0" y="0" width="32" height="32"/>
    </clipPath>
    <g clip-path="url(#_clip1)">
        <g id="outline">
            <path d="M6,17c0,0 0,5.828 0,8.586c0,0.905 0.36,1.774 1,2.414c0,0 0,0 0,0l0,2l1,0l0,-12l-2,-1Z" style="fill:#bdb0a0;stroke:#000;stroke-width:4px;"/>
            <path d="M26,17c0,0 0,5.828 0,8.586c0,0.905 -0.36,1.774 -1,2.414c0,0 0,0 0,0l0,2l-1,0l0,-12l2,-1Z" style="fill:#bdb0a0;stroke:#000;stroke-width:4px;"/>
            <path d="M22,7.338l0,-5.338c0,0 0.782,2.345 1.368,4.103c0.262,0.786 0.357,1.614 0.284,2.43c1.331,1.187 2.343,2.724 2.89,4.467l1.46,0c1.103,0 1.998,0.895 1.998,1.998c0,0.001 0,0.002 0,0.002l-1,1l0,2l1,1c0,0 0,0 0,0c0,1.105 -0.895,2 -2,2l-1,0l0,4c0,0 -0.588,-0.588 -1.243,-1.243c-0.364,-0.364 -0.677,-0.771 -0.934,-1.209c-0.44,1.769 -1.672,3.274 -3.386,4.036c-1.697,0.754 -3.58,1.591 -4.625,2.055c-0.517,0.23 -1.107,0.23 -1.624,0c-1.045,-0.464 -2.928,-1.301 -4.625,-2.055c-1.714,-0.762 -2.946,-2.267 -3.386,-4.036c-0.257,0.438 -0.57,0.845 -0.934,1.209c-0.655,0.655 -1.243,1.243 -1.243,1.243l0,-4l-1,0c-1.105,0 -2,-0.895 -2,-2c0,0 0,0 0,0l1,-1l0,-2l-1,-1c0,0 0,-0.001 0,-0.002c0,-1.103 0.895,-1.998 1.998,-1.998l1.46,0c0.547,-1.743 1.559,-3.28 2.89,-4.467c-0.073,-0.816 0.022,-1.644 0.284,-2.43c0.586,-1.758 1.368,-4.103 1.368,-4.103l0,5.338c1.471,-0.851 3.179,-1.338 5,-1.338c0.665,0 1.335,0 2,0c1.821,0 3.529,0.487 5,1.338Z" style="fill:none;stroke:#000;stroke-width:4px;stroke-linejoin:round;"/>
        </g>
        <g id="emoji">
            <path d="M16.812,28.639c-0.517,0.23 -1.107,0.23 -1.624,0c-1.045,-0.464 -2.928,-1.301 -4.625,-2.055c-2.167,-0.963 -3.563,-3.112 -3.563,-5.483c0,-3.504 0,-8.101 0,-8.101l3,-3l12,0l3,3c0,0 0,4.597 0,8.101c0,2.371 -1.396,4.52 -3.563,5.483c-1.697,0.754 -3.58,1.591 -4.625,2.055Z" style="fill:#f7f0e9;"/>
            <path d="M8,18l0,12l-1,0l0,-2c0,0 0,0 0,0c-0.64,-0.64 -1,-1.509 -1,-2.414l0,-6.586l2,-1Zm16,0l2,1l0,6.586c0,0.905 -0.36,1.774 -1,2.414c0,0 0,0 0,0l0,2l-1,0l0,-12l0,0Z" style="fill:#8b8681;"/>
            <g>
                <path d="M13,16.998c0,-1.103 -0.895,-1.998 -1.998,-1.998c-0.001,0 -0.003,0 -0.004,0c-1.103,0 -1.998,0.895 -1.998,1.998c0,0.001 0,0.002 0,0.002l4,0c0,0 0,-0.001 0,-0.002Z" style="fill:#cad8fa;"/>
                <path d="M23,16.998c0,-1.103 -0.895,-1.998 -1.998,-1.998c-0.001,0 -0.003,0 -0.004,0c-1.103,0 -1.998,0.895 -1.998,1.998c0,0.001 0,0.002 0,0.002l4,0c0,0 0,-0.001 0,-0.002Z" style="fill:#cad8fa;"/>
            </g>
            <g>
                <path d="M12,16.999c0,-0.265 -0.105,-0.519 -0.293,-0.706c-0.187,-0.188 -0.441,-0.293 -0.706,-0.293c0,0 -0.001,0 -0.001,0c-0.552,0 -1,0.448 -1,1c0,0.611 0,1.389 0,2c0,0.552 0.448,1 1,1c0,0 0.001,0 0.001,0c0.265,0 0.519,-0.105 0.706,-0.293c0.188,-0.187 0.293,-0.441 0.293,-0.706c0,-0.611 0,-1.391 0,-2.002Z"/>
                <path d="M22,17c0,-0.552 -0.448,-1 -1,-1c-0.552,0 -1,0.448 -1,1c0,0.611 0,1.389 0,2c0,0.552 0.448,1 1,1c0.552,0 1,-0.448 1,-1c0,-0.611 0,-1.389 0,-2Z"/>
            </g>
            <path d="M13,23c0,0 0.041,0.081 0.106,0.211c0.548,1.096 1.668,1.789 2.894,1.789c0,0 0,0 0,0c1.226,0 2.346,-0.693 2.894,-1.789c0.065,-0.13 0.106,-0.211 0.106,-0.211" style="fill:none;stroke:#bba387;stroke-width:1px;stroke-linejoin:round;"/>
            <g>
                <path d="M6,13c0,0 -1.001,0 -2.002,0c-1.103,0 -1.998,0.895 -1.998,1.998c0,0.001 0,0.002 0,0.002l2,2l-1,1l-1,1c0,0 0,0 0,0c0,1.105 0.895,2 2,2c1,0 2,0 2,0l0,-8Z" style="fill:#d8d8d8;"/>
                <path d="M26,13c0,0 1.001,0 2.002,0c1.103,0 1.998,0.895 1.998,1.998c0,0.001 0,0.002 0,0.002l-2,2l1,1l1,1c0,0 0,0 0,0c0,1.105 -0.895,2 -2,2c-1,0 -2,0 -2,0l0,-8Z" style="fill:#d8d8d8;"/>
                <g>
                    <path d="M29,18l0,0c0,0.552 -0.448,1 -1,1c-0.873,0 -2,0 -2,0l0,-4c0,0 1.127,0 2,0c0.552,0 1,0.448 1,1l0,0c-0.243,0.297 -0.408,1.406 0,2Z" style="fill:#323d6e;"/>
                    <path d="M29,16l0,2c-0.552,0 -1,-0.448 -1,-1c0,-0.552 0.448,-1 1,-1l0,0Z" style="fill:#c6b325;"/>
                </g>
                <g>
                    <path d="M3,18l0,0c0,0.552 0.448,1 1,1c0.873,0 2,0 2,0l0,-4c0,0 -1.127,0 -2,0c-0.552,0 -1,0.448 -1,1l0,0c0.243,0.297 0.408,1.406 0,2Z" style="fill:#323d6e;"/>
                    <path d="M3,16l0,2c0.552,0 1,-0.448 1,-1c0,-0.552 -0.448,-1 -1,-1l0,0Z" style="fill:#c6b325;"/>
                </g>
            </g>
            <path d="M9.997,12.5c-0.039,1.004 -0.455,1.958 -1.169,2.672l-0.828,0.828l0,3.515c0,1.591 -0.632,3.117 -1.757,4.242c-0.655,0.655 -1.243,1.243 -1.243,1.243c0,0 0,-4.422 0,-9c0,-5.523 4.477,-10 10,-10c0.665,0 1.335,0 2,0c5.523,0 10,4.477 10,10c0,4.578 0,9 0,9c0,0 -0.588,-0.588 -1.243,-1.243c-1.125,-1.125 -1.757,-2.651 -1.757,-4.242l0,-3.515c0,0 -0.392,-0.392 -0.828,-0.828c-0.714,-0.714 -1.13,-1.668 -1.169,-2.672l-0.003,0l0,3.5c0,0 -1.406,-1.406 -2.293,-2.293c-0.453,-0.453 -0.707,-1.067 -0.707,-1.707c0,0 0,0 0,0c0,0 0,0.077 0,0.189c0,0.537 -0.087,1.071 -0.257,1.581c-0.296,0.889 -0.743,2.23 -0.743,2.23c0,0 -0.991,-1.982 -1.578,-3.155c-0.277,-0.556 -0.422,-1.168 -0.422,-1.789l0,-0.055l0,0.055c0,0.621 -0.145,1.233 -0.422,1.789c-0.587,1.173 -1.578,3.155 -1.578,3.155c0,0 -0.447,-1.341 -0.743,-2.23c-0.17,-0.51 -0.257,-1.044 -0.257,-1.581c0,-0.112 0,-0.189 0,-0.189c0,0 0,0 0,0c0,0.64 -0.254,1.254 -0.707,1.707c-0.887,0.887 -2.293,2.293 -2.293,2.293l0,-3.5l-0.003,0Z" style="fill:#b9b0a4;"/>
            <g>
                <path d="M9.5,11c0.276,0 0.5,-0.224 0.5,-0.5c0,-1.891 0,-8.5 0,-8.5c0,0 -0.782,2.345 -1.368,4.103c-0.41,1.231 -0.41,2.563 0,3.794c0.098,0.292 0.187,0.561 0.254,0.761c0.068,0.204 0.259,0.342 0.474,0.342c0.046,0 0.093,0 0.14,0Z" style="fill:#3e5a76;"/>
                <path d="M22.5,11c-0.276,0 -0.5,-0.224 -0.5,-0.5c0,-1.891 0,-8.5 0,-8.5c0,0 0.782,2.345 1.368,4.103c0.41,1.231 0.41,2.563 0,3.794c-0.098,0.292 -0.187,0.561 -0.254,0.761c-0.068,0.204 -0.259,0.342 -0.474,0.342c-0.046,0 -0.093,0 -0.14,0Z" style="fill:#3e5a76;"/>
            </g>
        </g>
    </g>
</svg>
